PathFileType	4	(X/Y/Z)	Kaydara	
DataRate	CameraRate	NumFrames	NumMarkers	Units	OrigDataRate	OrigDataStartFrame	OrigNumFrames	
120.00	120.00	4	72	mm	120.00	168	268	
Frame#	Time	Hips			RightUpLeg			RightLeg			RightFoot			RightFoot_End			LeftUpLeg			LeftLeg			LeftFoot			LeftFoot_End			Spine			Spine1			Spine2			Spine3			Neck			Head			Head_End			RightShoulder			RightArm			RightForeArm			RightHand			RightHandThumb1			RightHandThumb2			RightHandThumb3			RightHandThumb3_End			RightInHandIndex			RightHandIndex1			RightHandIndex2			RightHandIndex3			RightHandIndex3_End			RightInHandMiddle			RightHandMiddle1			RightHandMiddle2			RightHandMiddle3			RightHandMiddle3_End			RightInHandRing			RightHandRing1			RightHandRing2			RightHandRing3			RightHandRing3_End			RightInHandPinky			RightHandPinky1			RightHandPinky2			RightHandPinky3			RightHandPinky3_End			LeftShoulder			LeftArm			LeftForeArm			LeftHand			LeftHandThumb1			LeftHandThumb2			LeftHandThumb3			LeftHandThumb3_End			LeftInHandIndex			LeftHandIndex1			LeftHandIndex2			LeftHandIndex3			LeftHandIndex3_End			LeftInHandMiddle			LeftHandMiddle1			LeftHandMiddle2			LeftHandMiddle3			LeftHandMiddle3_End			LeftInHandRing			LeftHandRing1			LeftHandRing2			LeftHandRing3			LeftHandRing3_End			LeftInHandPinky			LeftHandPinky1			LeftHandPinky2			LeftHandPinky3			LeftHandPinky3_End			
		X1	Y1	Z1	X2	Y2	Z2	X3	Y3	Z3	X4	Y4	Z4	X5	Y5	Z5	X6	Y6	Z6	X7	Y7	Z7	X8	Y8	Z8	X9	Y9	Z9	X10	Y10	Z10	X11	Y11	Z11	X12	Y12	Z12	X13	Y13	Z13	X14	Y14	Z14	X15	Y15	Z15	X16	Y16	Z16	X17	Y17	Z17	X18	Y18	Z18	X19	Y19	Z19	X20	Y20	Z20	X21	Y21	Z21	X22	Y22	Z22	X23	Y23	Z23	X24	Y24	Z24	X25	Y25	Z25	X26	Y26	Z26	X27	Y27	Z27	X28	Y28	Z28	X29	Y29	Z29	X30	Y30	Z30	X31	Y31	Z31	X32	Y32	Z32	X33	Y33	Z33	X34	Y34	Z34	X35	Y35	Z35	X36	Y36	Z36	X37	Y37	Z37	X38	Y38	Z38	X39	Y39	Z39	X40	Y40	Z40	X41	Y41	Z41	X42	Y42	Z42	X43	Y43	Z43	X44	Y44	Z44	X45	Y45	Z45	X46	Y46	Z46	X47	Y47	Z47	X48	Y48	Z48	X49	Y49	Z49	X50	Y50	Z50	X51	Y51	Z51	X52	Y52	Z52	X53	Y53	Z53	X54	Y54	Z54	X55	Y55	Z55	X56	Y56	Z56	X57	Y57	Z57	X58	Y58	Z58	X59	Y59	Z59	X60	Y60	Z60	X61	Y61	Z61	X62	Y62	Z62	X63	Y63	Z63	X64	Y64	Z64	X65	Y65	Z65	X66	Y66	Z66	X67	Y67	Z67	X68	Y68	Z68	X69	Y69	Z69	X70	Y70	Z70	X71	Y71	Z71	X72	Y72	Z72	

168	1.392	446.8050000000003	859.65103	-201.189	538.8562999999995	865.3666999999998	-216.04278999999997	406.4738000000016	469.34892999999994	-246.64548	455.7688900000012	50.28383000000001	-276.43600000000004	384.4994200000001	-25.62686	-116.13367	362.9974600000005	825.2983599999999	-173.30382	230.5483200000017	436.7093600000001	-91.11791	173.8627600000009	77.52512	122.82906	221.42302000000018	46.380840000000006	305.3301900000001	405.15733	984.3772800000002	-257.32942	355.9623199999987	1054.9687800000002	-302.36796000000004	299.0978899999991	1123.62596	-350.1243	237.1236200000003	1181.37908	-397.84567000000004	170.35948999999982	1243.50453	-445.67448	136.20395000000008	1319.1738799999998	-398.19712999999996	109.07808000000023	1400.1551100000001	-263.48826999999994	215.83439999999973	1239.8273500000003	-442.3403799999999	317.26462999999967	1293.7140700000002	-497.9576300000001	500.75576	1112.5575599999997	-561.31227	684.5219699999998	1174.4629399999997	-734.5743500000001	696.9041400000006	1212.4546099999998	-734.08811	703.4320299999999	1238.87003	-758.90483	709.9796000000006	1253.99333	-778.47305	717.1502800000017	1263.8015	-796.7417300000001	706.7604699999993	1204.91504	-740.4559900000002	741.4782200000009	1236.26179	-765.6406499999999	757.3839899999984	1254.30783	-792.6837799999998	758.4173499999997	1263.6919300000002	-810.90416	753.2995300000002	1270.22131	-826.9346800000001	710.6036000000004	1194.7444700000003	-746.24896	746.5473600000005	1219.8189499999999	-773.94401	764.2878900000014	1238.06239	-804.14802	765.7189300000009	1248.6889299999998	-826.46354	760.208700000001	1255.4953600000001	-844.16587	712.5366400000003	1186.78214	-749.6223300000001	746.7311599999994	1202.40962	-777.1466099999999	762.52873	1216.7905200000002	-804.13966	764.0869000000002	1226.2333600000002	-826.0190300000002	758.9901499999996	1232.25056	-842.83156	712.9410000000007	1176.51494	-753.3847799999999	744.9128400000009	1184.6063400000005	-780.70024	757.9354999999996	1193.6821	-803.23659	759.2522399999998	1199.38947	-819.6411700000001	754.8410600000007	1204.0404699999997	-834.7908300000001	167.8204199999991	1208.20973	-414.2342100000001	89.57257000000027	1112.09568	-381.4965000000001	238.4675299999999	1072.67844	-596.8763399999998	481.28983999999946	1151.7150899999997	-553.9893399999999	497.7778499999986	1187.5591000000002	-560.3355200000001	521.3602200000005	1202.36008	-584.4407100000001	535.3884400000006	1210.42459	-604.2566899999999	545.0347000000002	1215.2288800000001	-623.36773	489.4207100000003	1184.8140300000002	-571.1597899999999	498.5361099999991	1218.3893100000003	-611.3072500000001	511.74935000000005	1231.03671	-642.53924	524.9781199999998	1232.23835	-658.18108	539.3097300000009	1228.7397300000002	-668.58143	482.91719999999987	1177.0356700000002	-578.15767	488.2883899999997	1205.57973	-621.1005099999999	501.8275599999997	1218.23193	-655.9780699999999	517.3657299999995	1219.13045	-675.2319399999999	532.8420299999998	1215.0343500000001	-686.7977699999999	478.00626999999986	1170.78431	-582.07153	478.31230999999934	1191.23391	-623.93786	489.2070100000001	1201.0415000000003	-655.0845199999999	503.7136499999997	1201.2602199999997	-674.0532300000001	518.0372599999992	1197.10179	-685.11607	472.74061000000074	1161.8121399999998	-585.4638499999999	469.49748	1175.38632	-625.94876	476.80724999999984	1181.24642	-651.87311	486.70430999999917	1180.44166	-666.1845999999998	498.99897000000055	1176.2030100000002	-676.25821
169	1.4	446.8050000000003	859.65103	-201.189	538.775450000001	864.96728	-216.67837	405.81283000000076	469.30087	-249.24779000000004	455.7748100000008	50.272679999999994	-278.44039	384.46075999999994	-25.535429999999998	-118.10934	363.0644400000001	825.7354799999999	-172.577	230.1752499999984	437.6242600000001	-88.85809999999995	174.1284600000008	77.27608	123.29237	221.92510000000038	46.018229999999996	305.7123200000001	405.2220099999995	984.2364300000003	-257.68897000000004	355.9453400000002	1054.7173600000006	-302.8113000000001	298.97206000000006	1123.2586599999997	-350.60435	236.84610000000066	1180.8848900000003	-398.28186999999997	169.92843999999968	1242.8794799999998	-446.0659100000001	135.01426999999967	1318.37056	-398.85737000000006	107.7515800000001	1399.31959	-264.15676999999994	215.41478000000097	1239.0885700000003	-443.02826999999996	316.62300999999934	1292.3793799999996	-499.61566999999997	498.4527399999988	1109.50292	-562.81882	681.8400700000002	1169.27052	-737.22915	694.5086100000008	1207.1685499999999	-736.8178699999999	701.1100900000001	1233.5266799999997	-761.67601	707.6728999999996	1248.59448	-781.28191	714.825499999999	1258.3430399999997	-799.5895400000002	704.2762899999998	1199.55342	-743.23226	739.1015699999989	1230.63152	-768.6007400000001	755.0067600000002	1248.54958	-795.7291799999999	756.0193500000005	1257.92005	-813.95773	750.870570000001	1264.48262	-829.96477	708.0141900000017	1189.3525599999998	-749.0408199999999	744.0059300000012	1214.1486100000002	-776.9236199999999	761.7314999999999	1232.2493600000003	-807.2221100000003	763.1306000000004	1242.85799	-829.54817	757.5831600000001	1249.7000300000002	-847.22513	709.8706899999997	1181.3749399999997	-752.42104	744.043380000001	1196.7374000000002	-780.12107	759.8131900000008	1210.9912600000005	-807.1976	761.3327300000001	1220.4154100000005	-829.08774	756.1972800000003	1226.46542	-845.87671	710.1793799999996	1171.1038400000002	-756.1819	742.0740900000001	1178.9471499999997	-783.65941	755.0516299999999	1187.9181700000004	-806.2636199999998	756.3291300000001	1193.61045	-822.67654	751.8773000000001	1198.2896800000003	-837.8056	167.50806999999895	1207.81024	-414.3649500000001	89.42090000000007	1111.9540000000002	-380.50687000000005	236.54543000000012	1070.43084	-596.7060900000001	480.1795599999987	1147.9064100000003	-555.6122100000001	496.55333000000064	1183.75667	-562.2137	519.9048999999995	1198.51839	-586.5663899999997	533.7504000000008	1206.5419	-606.52698	543.2255299999997	1211.3003100000003	-625.73487	488.10887	1180.96306	-572.9574899999999	496.82618	1214.42361	-613.28872	509.7518800000016	1226.99184	-644.67263	522.8449199999995	1228.1646699999997	-660.4304300000001	537.0932100000009	1224.6559700000003	-670.94126	481.55892999999924	1173.1515600000002	-579.8746800000001	486.5167099999999	1201.5657800000001	-622.9531299999999	499.7372599999999	1214.1276	-657.98524	515.1093600000004	1214.9894399999998	-677.37363	530.4933799999999	1210.88138	-689.05774	476.6252399999994	1166.8796100000002	-583.72645	476.54068000000007	1187.1946100000002	-625.65929	487.15337999999974	1196.91953	-656.9289900000001	501.49753000000055	1197.10082	-676.02125	515.7332899999983	1192.9301699999996	-687.19237	471.3457900000012	1157.88796	-587.0449600000001	467.73539000000164	1171.32623	-627.5441100000002	474.81432999999925	1177.1146700000002	-653.5485000000001	484.5904499999997	1176.2799600000003	-667.9411700000002	496.80588999999964	1172.0289500000003	-678.1055399999999
170	1.408	446.8050000000003	859.65103	-201.189	538.5619999999999	863.97361	-218.18064	404.8916399999998	468.70436	-252.62171000000004	455.5001799999991	49.71876	-281.30757000000006	384.0494400000007	-25.98321	-120.98723000000001	363.2382499999985	826.8185699999999	-170.85714	229.9996200000005	439.1748	-85.54313000000002	174.6615699999993	77.44086000000001	124.42385	222.78692000000046	45.97570999999999	306.7217	405.40610000000015	983.90513	-258.54719	356.04351999999926	1054.19601	-303.87163	298.94400999999925	1122.5621500000002	-351.76484	236.64400000000023	1180.0518500000003	-399.38000999999997	169.54917999999998	1241.9046	-447.09938	133.79647999999997	1317.1768899999997	-400.16988999999995	106.37698999999975	1398.0559999999996	-265.45913	215.04574999999932	1237.9871300000004	-444.39366	315.9953999999998	1290.64128	-502.0292299999999	492.7381499999992	1102.5904399999997	-564.4741800000002	675.6037700000015	1160.18119	-740.16001	688.5756899999997	1197.97726	-739.8309500000001	695.2443000000003	1224.27678	-764.73321	701.8144499999999	1239.28773	-784.3802099999999	708.9394700000012	1248.9751899999999	-802.7309800000002	698.2455599999994	1190.2832600000002	-746.2992	733.1712599999992	1221.07782	-771.8745599999999	749.0629599999993	1238.8629999999998	-799.0981800000002	750.0456999999988	1248.2212799999998	-817.3346299999998	744.8577399999995	1254.8212599999997	-833.3136100000003	701.8688299999994	1180.0517500000003	-752.12644	737.8965399999997	1204.5546400000003	-780.2211499999999	755.5918300000012	1222.50734	-810.6252400000001	756.9474599999994	1233.09981	-832.9616600000002	751.3535200000006	1239.98207	-850.60833	703.6423900000009	1172.0588899999998	-755.5151999999998	737.7771000000012	1187.14302	-783.4143100000001	753.5045600000012	1201.2651900000003	-810.5843199999999	754.9736900000007	1210.6723499999996	-832.48521	749.7904999999992	1216.75952	-849.2460499999997	703.8477800000001	1161.78487	-759.27514	735.6460499999994	1169.36826	-786.93678	748.5649300000005	1178.2309299999997	-809.6171899999999	749.7937000000002	1183.90942	-826.0386099999998	745.2926900000002	1188.6207500000003	-841.1431399999999	167.26762000000053	1207.08318	-415.11619999999994	89.3502899999994	1111.51968	-380.06054000000006	232.00783000000047	1064.77538	-598.17908	476.46503999999914	1140.7096200000003	-559.14805	492.8473700000013	1176.56063	-565.72424	516.21882	1191.3287900000003	-590.05393	530.0802299999996	1199.3581	-610.0011600000003	539.5703599999997	1204.1224900000002	-629.20016	484.41076000000066	1173.7717300000002	-576.47542	493.1619100000007	1207.2459200000003	-616.7880000000001	506.11261000000013	1219.82417	-648.15759	519.2176800000016	1221.0013600000002	-663.9050499999998	533.4735799999999	1217.4950299999998	-674.4063600000002	477.86528	1165.96338	-583.4003800000003	482.8584800000008	1194.3926099999999	-626.46483	496.1067899999998	1206.9657099999997	-661.4823999999999	511.4936400000006	1207.833	-680.85884	526.88609	1203.72762	-692.53278	472.9338800000005	1159.6933	-587.25814	472.88306999999986	1180.0234100000002	-629.18371	483.5203999999994	1189.7585300000003	-660.4418700000001	497.87901000000056	1189.94526	-679.5232099999998	512.1228099999989	1185.77721	-690.6850399999998	467.6560499999996	1150.70337	-590.5838699999999	464.0776299999998	1164.15658	-631.08091	471.17683000000034	1169.95368	-657.07785	480.963749999999	1169.12318	-671.46341	493.186459999999	1164.8746100000003	-681.6200699999999
171	1.417	446.8050000000003	859.65103	-201.189	538.475120000001	863.5554700000001	-218.74152000000004	403.8708000000006	468.7583200000001	-254.91631000000007	455.13350999999966	49.81956000000001	-283.12073	383.4383199999993	-25.78941	-122.86563999999998	363.29925000000003	827.26891	-170.21188000000004	229.77762000000075	440.09569	-83.2201	175.06650999999965	76.88355000000001	124.34559	223.70096999999987	45.09094	306.45141	405.5236299999997	983.7894999999999	-258.88131	356.09763999999996	1053.98237	-304.28846999999996	298.8967300000004	1122.2389599999997	-352.21687	236.44024999999965	1179.5961099999997	-399.78692	169.1873000000005	1241.3123100000005	-447.46048	132.55570999999964	1316.3495799999998	-400.8334100000001	105.0012200000001	1397.13623	-266.09470999999996	214.68946000000142	1237.23805	-445.10271	315.38227000000006	1289.22444	-503.78425	491.0660399999997	1100.16142	-566.1611199999999	673.3430399999997	1155.43627	-743.1973599999999	686.6363000000001	1193.1212699999999	-742.97033	693.3764599999995	1219.34911	-767.92884	699.9544100000003	1234.29264	-787.6245699999998	707.0499600000003	1243.9089100000003	-806.02414	696.2013299999999	1185.3419400000002	-749.4921600000001	731.2310400000006	1215.8248999999998	-775.2975200000001	747.1076400000002	1233.4592600000003	-802.6278500000001	748.0591700000004	1242.79845	-820.8757399999997	742.8306200000006	1249.43301	-836.82714	699.7024799999999	1175.0767699999997	-755.33484	735.7656100000004	1199.2575199999999	-783.6622500000001	753.4278699999995	1217.04229	-814.18401	754.7378900000003	1227.61012	-836.5348099999999	749.0956800000004	1234.52945	-854.1515999999999	701.3877499999999	1167.06724	-758.7292900000001	735.4794099999999	1181.84571	-786.8437799999999	751.1610899999996	1195.8186099999998	-814.1172299999998	752.5771999999997	1205.2004700000002	-836.0324600000001	747.344360000001	1211.3217499999998	-852.76543	701.4833699999999	1156.7897	-762.4840000000002	733.1766399999997	1164.0876299999998	-790.34222	746.0325499999999	1172.8275800000001	-813.10589	747.2098999999998	1178.48607	-829.5379799999998	742.657580000001	1183.2267300000003	-844.6179299999999	167.0394699999997	1206.76862	-415.16835	89.29799999999977	1111.5380300000002	-378.83942	230.23008000000118	1062.8088900000002	-597.64418	475.55372999999963	1137.0487599999997	-560.85411	491.90481	1172.90211	-567.4949900000001	515.2184400000006	1187.6608099999999	-591.88582	529.0344499999992	1195.6797900000001	-611.8686600000001	538.4823499999984	1200.4323599999998	-631.0914100000001	483.44724999999926	1170.09989	-578.2262300000002	492.09826000000066	1203.5438	-618.5855299999998	504.97760000000017	1216.10148	-649.99271	518.0493600000009	1217.27158	-665.7683699999999	532.2851200000005	1213.7632000000003	-676.2962699999999	476.8912199999995	1162.2824200000002	-585.1308900000001	481.78104000000167	1190.6771799999997	-628.22992	494.9504199999992	1203.2267500000003	-663.2857	510.29655999999886	1204.08494	-682.6947999999999	525.6667199999993	1199.97706	-694.3971899999999	471.9548900000009	1156.0066300000003	-588.9730300000001	471.80702999999994	1176.3007999999998	-630.91578	482.37463000000025	1186.01432	-662.20429	496.6934799999999	1186.19171	-681.3155800000001	510.91610000000037	1182.0210399999996	-692.50342	466.6745600000013	1147.01129	-592.2801	463.00542999999925	1160.42806	-632.78111	470.04777000000104	1166.20635	-658.7976899999999	479.80518999999913	1165.3683000000003	-673.2028399999999	492.00885000000017	1161.11699	-683.3812400000002
